<?xml version="1.0" standalone="no"?>
<!DOCTYPE svg PUBLIC "-//W3C//DTD SVG 20010904//EN"
 "http://www.w3.org/TR/2001/REC-SVG-20010904/DTD/svg10.dtd">
<svg version="1.0" xmlns="http://www.w3.org/2000/svg"
 width="512.000000pt" height="512.000000pt" viewBox="0 0 512.000000 512.000000"
 preserveAspectRatio="xMidYMid meet">

<g transform="translate(0.000000,512.000000) scale(0.100000,-0.100000)"
fill="#000000" stroke="none">
<path d="M2285 5048 c-116 -11 -312 -51 -442 -89 -752 -218 -1369 -784 -1664
-1527 -71 -179 -135 -441 -160 -657 -16 -145 -13 -447 6 -594 40 -311 113
-550 250 -826 289 -585 780 -1030 1390 -1261 131 -49 197 -44 235 18 18 31 20
51 20 267 l0 234 -52 -9 c-29 -5 -125 -9 -213 -8 -145 1 -167 3 -232 26 -190
67 -279 155 -385 378 -75 159 -142 247 -250 328 -46 35 -93 77 -103 94 -18 31
-18 32 4 49 75 61 261 12 385 -102 29 -27 82 -91 117 -142 83 -121 143 -178
236 -224 l77 -38 141 1 c122 0 149 3 209 25 l69 24 21 80 c25 94 54 157 101
218 l35 45 -73 12 c-343 54 -546 136 -723 291 -215 189 -328 455 -354 834 -21
314 40 544 199 755 l57 75 -19 60 c-31 93 -35 312 -9 430 11 50 29 113 39 140
18 49 20 50 62 53 130 9 350 -72 568 -209 l92 -58 78 19 c362 86 782 86 1124
-1 l77 -19 132 80 c207 124 364 182 500 184 l74 1 19 -50 c60 -159 75 -383 36
-546 l-21 -89 57 -75 c110 -146 175 -315 194 -505 13 -125 0 -350 -30 -493
-102 -496 -434 -785 -994 -867 -137 -20 -130 -13 -80 -81 24 -33 53 -85 65
-117 45 -119 50 -179 50 -615 0 -372 2 -415 18 -447 48 -96 156 -78 477 80
692 340 1205 1004 1365 1766 50 238 67 579 41 809 -67 582 -307 1093 -711
1509 -424 438 -979 707 -1574 765 -128 13 -402 12 -531 -1z"/>
</g>
</svg>
